{"title":"Maze Runner The Scorch Trials 2015 HDRip KORSUB XviD MP3-RARBG","uid":12674327,"size":1781862410,"categoryP":"video","categoryS":"movies","magnet":"?xt=urn:btih:f48703edec56e6dc733bd7ee2cd26d7f9cdc21d6&amp;dn=Maze+Runner+The+Scorch+Trials+2015+HDRip+KORSUB+XviD+MP3-RARBG&amp;tr=udp%3A%2F%2Ftracker.leechers-paradise.org%3A6969&amp;tr=udp%3A%2F%2Fzer0day.ch%3A1337&amp;tr=udp%3A%2F%2Fopen.demonii.com%3A1337&amp;tr=udp%3A%2F%2Ftracker.coppersurfer.tk%3A6969&amp;tr=udp%3A%2F%2Fexodus.desync.com%3A6969","seeders":0,"leechers":4,"uploader":"TheRival","files":4,"time":1446491538,"description":"Screens: \nhttp://extraimago.com/image/JBM \nhttp://extraimago.com/image/JBU \nhttp://extraimago.com/image/JBz \nhttp://extraimago.com/image/JB0 \nhttp://extraimago.com/image/JBJ \nhttp://extraimago.com/image/JBK\r\n\r\nVideo\r\nID                                       : 0\r\nFormat                                   : MPEG-4 Visual\r\nFormat profile                           :   \r\nFormat settings, BVOP                    : No\r\nFormat settings, QPel                    : No\r\nFormat settings, GMC                     : No warppoints\r\nFormat settings, Matrix                  : Default (H.263)\r\nCodec ID                                 : XVID\r\nCodec ID/Hint                            : XviD\r\nDuration                                 : 2h 11mn\r\nBit rate                                 : 1 600 Kbps\r\nWidth                                    : 720 pixels\r\nHeight                                   : 400 pixels\r\nDisplay aspect ratio                     : 16:9\r\nFrame rate                               : 29.970 fps\r\nColor space                              : YUV\r\nChroma subsampling                       : 4:2:0\r\nBit depth                                : 8 bits\r\nScan type                                : Progressive\r\nCompression mode                         : Lossy\r\nBits/(Pixel*Frame)                       : 0.185\r\nStream size                              : 1.47 GiB (89%)\r\nWriting library                          : Lavc56.13.100\r\n\r\nAudio\r\nID                                       : 1\r\nFormat                                   : MPEG Audio\r\nFormat version                           : Version 1\r\nFormat profile                           : Layer 3\r\nMode                                     : Joint stereo\r\nCodec ID                                 : 55\r\nCodec ID/Hint                            : MP3\r\nDuration                                 : 2h 11mn\r\nBit rate mode                            : Constant\r\nBit rate                                 : 192 Kbps\r\nChannel(s)                               : 2 channels\r\nSampling rate                            : 48.0 KHz\r\nCompression mode                         : Lossy\r\nStream size                              : 181 MiB (11%)\r\nAlignment                                : Aligned on interleaves\r\nInterleave, duration                     : 24 ms (0.72 video frame)\r\nInterleave, preload duration             : 504 ms","torrent":{"xt":"urn:btih:f48703edec56e6dc733bd7ee2cd26d7f9cdc21d6","amp;dn":"Maze+Runner+The+Scorch+Trials+2015+HDRip+KORSUB+XviD+MP3-RARBG","amp;tr":["udp%3A%2F%2Ftracker.leechers-paradise.org%3A6969","udp%3A%2F%2Fzer0day.ch%3A1337","udp%3A%2F%2Fopen.demonii.com%3A1337","udp%3A%2F%2Ftracker.coppersurfer.tk%3A6969","udp%3A%2F%2Fexodus.desync.com%3A6969"],"infoHash":"f48703edec56e6dc733bd7ee2cd26d7f9cdc21d6","infoHashBuffer":{"type":"Buffer","data":[244,135,3,237,236,86,230,220,115,59,215,238,44,210,109,127,156,220,33,214]},"announce":[],"urlList":[]}}